<svg id="Layer_1" data-name="Layer 1" xmlns="http://www.w3.org/2000/svg" viewBox="0 0 164.19 196.35"><defs><style>.cls-1{fill:#3d3d3b;}.cls-2{fill:#f6f6f6;}</style></defs><path class="cls-1" d="M10.37,184.71a.33.33,0,0,0,0,.56,3.24,3.24,0,0,1,1.43,3v3.59c0,2.75-1.29,4.09-3.87,4.09H.34a.34.34,0,0,1-.34-.33V176.14a.34.34,0,0,1,.34-.34h7.4c2.58,0,3.87,1.34,3.87,4.09v1.85A3.33,3.33,0,0,1,10.37,184.71Zm-3.7-5.88h-2a.34.34,0,0,0-.34.33v4.71a.34.34,0,0,0,.34.34h2a.69.69,0,0,0,.4-.14l.09-.07a.65.65,0,0,0,.13-.41v-4.15a.65.65,0,0,0-.13-.41L7.07,179A.68.68,0,0,0,6.67,178.83Zm.84,13.62v-4.54a.64.64,0,0,0-.16-.45.66.66,0,0,0-.45-.17H4.65a.34.34,0,0,0-.33.34v5.1a.34.34,0,0,0,.33.34H6.9a.62.62,0,0,0,.38-.13.35.35,0,0,0,.11-.1A.71.71,0,0,0,7.51,192.45Z"/><path class="cls-1" d="M19.57,192.45h4.15a.34.34,0,0,1,.34.34v2.91a.34.34,0,0,1-.34.34H15.2a.34.34,0,0,1-.34-.34V176.19a.34.34,0,0,1,.34-.34h8.52a.35.35,0,0,1,.34.34v2.86a.34.34,0,0,1-.34.34H19.57a.34.34,0,0,0-.34.33v4.1a.34.34,0,0,0,.34.33h3.87a.34.34,0,0,1,.33.34v2.75a.33.33,0,0,1-.33.33H19.57a.34.34,0,0,0-.34.34v4.21A.34.34,0,0,0,19.57,192.45Z"/><path class="cls-1" d="M38.09,176.36l-4.15,12.28a.43.43,0,0,0,0,.11v6.95a.34.34,0,0,1-.33.34h-3.7a.34.34,0,0,1-.34-.34v-6.95a.43.43,0,0,0,0-.11l-4.15-12.28a.34.34,0,0,1,.32-.45h3.37a.35.35,0,0,1,.33.24l2,7a.34.34,0,0,0,.65,0l2-7a.33.33,0,0,1,.32-.24h3.37A.34.34,0,0,1,38.09,176.36Z"/><path class="cls-1" d="M52,179.67v12.56c0,2.75-1.29,4.09-3.87,4.09H44c-2.58,0-3.87-1.34-3.87-4.09V179.67c0-2.75,1.29-4.1,3.87-4.1h4.15C50.69,175.57,52,176.92,52,179.67Zm-4.37,13.06V179.16a.66.66,0,0,0-.17-.45.64.64,0,0,0-.45-.16H45a.71.71,0,0,0-.41.13l-.08.07a.65.65,0,0,0-.13.41v13.57a.58.58,0,0,0,.62.62h2a.69.69,0,0,0,.4-.14.27.27,0,0,0,.08-.07A.66.66,0,0,0,47.61,192.73Z"/><path class="cls-1" d="M66.78,196h-4a.34.34,0,0,1-.34-.34V179.33a.58.58,0,0,0-.62-.62H60.11a.69.69,0,0,0-.4.14.27.27,0,0,0-.08.07.66.66,0,0,0-.14.41V195.7a.34.34,0,0,1-.33.34h-3.7a.34.34,0,0,1-.34-.34v-16c0-2.75,1.29-4.1,3.87-4.1h3.87c2.58,0,3.87,1.35,3.87,4.1V196Z"/><path class="cls-1" d="M77.72,175.91c2.58,0,3.87,1.35,3.87,4.09V192c0,2.75-1.29,4.09-3.87,4.09H70a.34.34,0,0,1-.33-.34V176.19a.34.34,0,0,1,.33-.34h7.69Zm-.51,16.54V179.5a.6.6,0,0,0-.17-.45.64.64,0,0,0-.45-.17H74.35a.34.34,0,0,0-.33.34v13.51a.34.34,0,0,0,.33.34h2.24a.65.65,0,0,0,.39-.13.35.35,0,0,0,.11-.1A.71.71,0,0,0,77.21,192.45Z"/><path class="cls-1" d="M102.07,175.94h3.51a.34.34,0,0,1,.33.4l-4,19.52a.34.34,0,0,1-.33.26h-4.5a.33.33,0,0,1-.33-.26l-4-19.52a.33.33,0,0,1,.33-.4h3.56a.33.33,0,0,1,.33.28L99,188.63a.33.33,0,0,0,.66,0l2-12.41A.33.33,0,0,1,102.07,175.94Z"/><rect class="cls-1" x="108.12" y="175.94" width="4.37" height="20.19" rx="0.34"/><path class="cls-1" d="M127,181.21h-3.81a.34.34,0,0,1-.34-.34v-1.23a.6.6,0,0,0-.17-.45.64.64,0,0,0-.45-.17h-1.73a.72.72,0,0,0-.41.14.27.27,0,0,0-.08.07.65.65,0,0,0-.13.41v3.59a.66.66,0,0,0,.17.45.64.64,0,0,0,.45.17h2.8c2.58.05,3.87,1.4,3.87,4.09v4.32c0,2.74-1.29,4.09-3.87,4.09h-3.7c-2.58,0-3.87-1.35-3.87-4.09v-1.74a.34.34,0,0,1,.34-.34h3.47a.34.34,0,0,1,.34.34v1.9a.58.58,0,0,0,.62.62h1.9a.67.67,0,0,0,.4-.14l.09-.07a.65.65,0,0,0,.13-.41v-4a.66.66,0,0,0-.17-.45.64.64,0,0,0-.45-.16h-2.8c-2.58,0-3.87-1.35-3.87-4.1v-4c0-2.75,1.29-4.1,3.87-4.1H123c2.57,0,3.86,1.35,3.86,4.1v1.51Z"/><rect class="cls-1" x="129.99" y="175.94" width="4.37" height="20.19" rx="0.34"/><path class="cls-1" d="M149.5,179.7v12.56c0,2.74-1.29,4.09-3.87,4.09h-4.15c-2.58,0-3.87-1.35-3.87-4.09V179.7c0-2.75,1.29-4.1,3.87-4.1h4.15C148.21,175.6,149.5,177,149.5,179.7Zm-4.37,13.06V179.19a.58.58,0,0,0-.62-.62h-2a.69.69,0,0,0-.4.14l-.09.07a.71.71,0,0,0-.13.41v13.57a.58.58,0,0,0,.62.62h2a.69.69,0,0,0,.4-.14l.09-.07A.71.71,0,0,0,145.13,192.76Z"/><path class="cls-1" d="M160.21,196.07a.34.34,0,0,1-.33-.34V179.36a.64.64,0,0,0-.17-.45.66.66,0,0,0-.45-.17h-1.68a.72.72,0,0,0-.41.14.27.27,0,0,0-.08.07.65.65,0,0,0-.13.41v16.37a.34.34,0,0,1-.34.34h-3.7a.34.34,0,0,1-.33-.34v-16c0-2.75,1.29-4.1,3.86-4.1h3.87c2.58,0,3.87,1.35,3.87,4.1v16a.34.34,0,0,1-.33.34Z"/><rect class="cls-1" width="164.19" height="164.19" rx="12.73"/><path class="cls-2" d="M80,93.86l5.47,11.89A3,3,0,0,1,82.75,110L51,110a3,3,0,0,0-2.71,4.23L50.47,119a16.9,16.9,0,0,0,15.35,9.83H109.1A16.9,16.9,0,0,0,124.45,119l26-56.68a2.49,2.49,0,0,0-2.26-3.52H133.59a3.16,3.16,0,0,0-2.86,1.84l-21.36,46.28a1.58,1.58,0,0,1-2.87,0l-10-21.66A21.38,21.38,0,0,0,77.14,72.76H51.69A3,3,0,0,1,49,71L33.42,37.15a3,3,0,0,0-2.71-1.74H16a2.49,2.49,0,0,0-2.26,3.52L36.61,88.78a4.49,4.49,0,0,0,4.06,2.61l35.52,0A4.18,4.18,0,0,1,80,93.86Z"/></svg>